<?xml version="1.0" encoding="UTF-8"?>
<svg xmlns="http://www.w3.org/2000/svg" width="825" height="81">
   <defs>
      <style type="text/css">
    @namespace "http://www.w3.org/2000/svg";
    .line                 {fill: none; stroke: #332900; stroke-width: 1;}
    .bold-line            {stroke: #141000; shape-rendering: crispEdges; stroke-width: 2;}
    .thin-line            {stroke: #1F1800; shape-rendering: crispEdges}
    .filled               {fill: #332900; stroke: none;}
    text.terminal         {font-family: Verdana, Sans-serif;
                            font-size: 12px;
                            fill: #141000;
                            font-weight: bold;
                          }
    text.nonterminal      {font-family: Verdana, Sans-serif;
                            font-size: 12px;
                            fill: #1A1400;
                            font-weight: normal;
                          }
    text.regexp           {font-family: Verdana, Sans-serif;
                            font-size: 12px;
                            fill: #1F1800;
                            font-weight: normal;
                          }
    rect, circle, polygon {fill: #332900; stroke: #332900;}
    rect.terminal         {fill: #FFDB4D; stroke: #332900; stroke-width: 1;}
    rect.nonterminal      {fill: #FFEC9E; stroke: #332900; stroke-width: 1;}
    rect.text             {fill: none; stroke: none;}
    polygon.regexp        {fill: #FFF4C7; stroke: #332900; stroke-width: 1;}
  </style>
   </defs>
   <polygon points="9 17 1 13 1 21"/>
   <polygon points="17 17 9 13 9 21"/>
   <a xmlns:xlink="http://www.w3.org/1999/xlink"
       xlink:href="#LineLabel"
       xlink:title="LineLabel">
      <rect x="51" y="35" width="80" height="32"/>
      <rect x="49" y="33" width="80" height="32" class="nonterminal"/>
      <text class="nonterminal" x="59" y="53">LineLabel</text>
   </a>
   <rect x="151" y="35" width="24" height="32" rx="10"/>
   <rect x="149"
          y="33"
          width="24"
          height="32"
          class="terminal"
          rx="10"/>
   <text class="terminal" x="159" y="53">:</text>
   <a xmlns:xlink="http://www.w3.org/1999/xlink"
       xlink:href="#ifnz"
       xlink:title="ifnz">
      <rect x="215" y="3" width="42" height="32"/>
      <rect x="213" y="1" width="42" height="32" class="nonterminal"/>
      <text class="nonterminal" x="223" y="21">ifnz</text>
   </a>
   <a xmlns:xlink="http://www.w3.org/1999/xlink"
       xlink:href="#Register"
       xlink:title="Register">
      <rect x="277" y="3" width="72" height="32"/>
      <rect x="275" y="1" width="72" height="32" class="nonterminal"/>
      <text class="nonterminal" x="285" y="21">Register</text>
   </a>
   <rect x="369" y="3" width="26" height="32" rx="10"/>
   <rect x="367"
          y="1"
          width="26"
          height="32"
          class="terminal"
          rx="10"/>
   <text class="terminal" x="377" y="21">(</text>
   <a xmlns:xlink="http://www.w3.org/1999/xlink"
       xlink:href="#LineLabel"
       xlink:title="LineLabel">
      <rect x="435" y="3" width="80" height="32"/>
      <rect x="433" y="1" width="80" height="32" class="nonterminal"/>
      <text class="nonterminal" x="443" y="21">LineLabel</text>
   </a>
   <a xmlns:xlink="http://www.w3.org/1999/xlink"
       xlink:href="#LineNumber"
       xlink:title="LineNumber">
      <rect x="435" y="47" width="96" height="32"/>
      <rect x="433" y="45" width="96" height="32" class="nonterminal"/>
      <text class="nonterminal" x="443" y="65">LineNumber</text>
   </a>
   <rect x="571" y="3" width="24" height="32" rx="10"/>
   <rect x="569"
          y="1"
          width="24"
          height="32"
          class="terminal"
          rx="10"/>
   <text class="terminal" x="579" y="21">,</text>
   <a xmlns:xlink="http://www.w3.org/1999/xlink"
       xlink:href="#LineLabel"
       xlink:title="LineLabel">
      <rect x="635" y="3" width="80" height="32"/>
      <rect x="633" y="1" width="80" height="32" class="nonterminal"/>
      <text class="nonterminal" x="643" y="21">LineLabel</text>
   </a>
   <a xmlns:xlink="http://www.w3.org/1999/xlink"
       xlink:href="#LineNumber"
       xlink:title="LineNumber">
      <rect x="635" y="47" width="96" height="32"/>
      <rect x="633" y="45" width="96" height="32" class="nonterminal"/>
      <text class="nonterminal" x="643" y="65">LineNumber</text>
   </a>
   <rect x="771" y="3" width="26" height="32" rx="10"/>
   <rect x="769"
          y="1"
          width="26"
          height="32"
          class="terminal"
          rx="10"/>
   <text class="terminal" x="779" y="21">)</text>
   <path class="line"
          d="m17 17 h2 m20 0 h10 m0 0 h134 m-164 0 h20 m144 0 h20 m-184 0 q10 0 10 10 m164 0 q0 -10 10 -10 m-174 10 v12 m164 0 v-12 m-164 12 q0 10 10 10 m144 0 q10 0 10 -10 m-154 10 h10 m80 0 h10 m0 0 h10 m24 0 h10 m20 -32 h10 m42 0 h10 m0 0 h10 m72 0 h10 m0 0 h10 m26 0 h10 m20 0 h10 m80 0 h10 m0 0 h16 m-136 0 h20 m116 0 h20 m-156 0 q10 0 10 10 m136 0 q0 -10 10 -10 m-146 10 v24 m136 0 v-24 m-136 24 q0 10 10 10 m116 0 q10 0 10 -10 m-126 10 h10 m96 0 h10 m20 -44 h10 m24 0 h10 m20 0 h10 m80 0 h10 m0 0 h16 m-136 0 h20 m116 0 h20 m-156 0 q10 0 10 10 m136 0 q0 -10 10 -10 m-146 10 v24 m136 0 v-24 m-136 24 q0 10 10 10 m116 0 q10 0 10 -10 m-126 10 h10 m96 0 h10 m20 -44 h10 m26 0 h10 m3 0 h-3"/>
   <polygon points="815 17 823 13 823 21"/>
   <polygon points="815 17 807 13 807 21"/>
</svg>
